<?xml version="1.0" encoding="UTF-8" standalone="no"?>
<svg
   viewBox="0 0 512 205"
   version="1.1"
   id="svg1"
   inkscape:version="1.4.1 (1:1.4.1+202503302257+93de688d07)"
   sodipodi:docname="logo-text.svg"
   width="512"
   height="205"
   xmlns:inkscape="http://www.inkscape.org/namespaces/inkscape"
   xmlns:sodipodi="http://sodipodi.sourceforge.net/DTD/sodipodi-0.dtd"
   xmlns="http://www.w3.org/2000/svg"
   xmlns:svg="http://www.w3.org/2000/svg">
  <defs
     id="defs1" />
  <sodipodi:namedview
     id="namedview1"
     pagecolor="#ffffff"
     bordercolor="#000000"
     borderopacity="0.25"
     inkscape:showpageshadow="2"
     inkscape:pageopacity="0.0"
     inkscape:pagecheckerboard="0"
     inkscape:deskcolor="#d1d1d1"
     inkscape:document-units="px"
     inkscape:zoom="3.1446014"
     inkscape:cx="182.21705"
     inkscape:cy="92.53955"
     inkscape:window-width="2560"
     inkscape:window-height="1515"
     inkscape:window-x="0"
     inkscape:window-y="0"
     inkscape:window-maximized="1"
     inkscape:current-layer="layer1"
     showborder="true" />
  <g
     inkscape:label="Layer 1"
     inkscape:groupmode="layer"
     id="layer1">
    <path
       d="m 227.98097,99.622537 h -7.808 v 4.736003 c -2.944,-3.904 -6.464,-5.568003 -11.584,-5.568003 -10.496,0 -18.048,7.872003 -18.048,18.688003 0,10.688 7.488,18.432 17.856,18.432 4.992,0 8.384,-1.536 11.776,-5.44 v 4.608 h 7.808 z m -18.496,6.976003 c 6.08,0 10.432,4.544 10.432,11.008 0,2.56 -1.024,5.504 -2.56,7.296 -1.728,2.112 -4.48,3.2 -7.744,3.2 -6.208,0 -10.496,-4.224 -10.496,-10.432 0,-6.464 4.288,-11.072 10.368,-11.072 z m 24.83199,40.32 h 8.512 v -15.168 c 3.264,2.88 6.528,4.16 10.88,4.16 10.24,0 17.728,-7.936 17.728,-18.688 0,-10.688 -7.424,-18.432003 -17.6,-18.432003 -4.864,0 -8.96,1.728003 -11.712,4.992003 v -4.160003 h -7.808 z m 18.368,-40.32 c 5.76,0 10.176,4.672 10.176,10.816 0,6.016 -4.416,10.688 -10.048,10.688 -6.016,0 -10.496,-4.608 -10.496,-10.816 0,-6.08 4.48,-10.688 10.368,-10.688 z m 23.87199,40.32 h 8.512 v -15.168 c 3.264,2.88 6.528,4.16 10.88,4.16 10.24,0 17.728,-7.936 17.728,-18.688 0,-10.688 -7.424,-18.432003 -17.6,-18.432003 -4.864,0 -8.96,1.728003 -11.712,4.992003 v -4.160003 h -7.808 z m 18.368,-40.32 c 5.76,0 10.176,4.672 10.176,10.816 0,6.016 -4.416,10.688 -10.048,10.688 -6.016,0 -10.496,-4.608 -10.496,-10.816 0,-6.08 4.48,-10.688 10.368,-10.688 z"
       id="text3"
       style="font-weight:600;font-size:64px;font-family:'URW Gothic';-inkscape-font-specification:'URW Gothic, Semi-Bold';fill:#00aa00;stroke-width:26.5839;stroke-linecap:round;stroke-linejoin:round"
       aria-label="app" />
    <path
       d="m 156.24424,84.95047 h 8.768 v -38.912 h 8.768 v -8.384 h -26.304 v 8.384 h 8.768 z m 53.95181,-13.952 c 0.256,-1.28 0.32,-2.048 0.32,-3.328 0,-10.944 -7.744,-19.008 -18.304,-19.008 -10.432,0 -18.688,8.256 -18.688,18.688 0,10.368 8.384,18.432 19.2,18.432 5.824,0 10.368,-2.112 14.08,-6.4 1.344,-1.664 2.24,-3.136 2.816,-4.928 h -9.28 c -2.176,2.56 -4.288,3.52 -7.808,3.52 -5.056,0 -8.768,-2.688 -9.792,-6.976 z m -27.712,-7.488 c 1.344,-4.608 4.8,-7.04 9.856,-7.04 5.248,0 8.704,2.496 9.792,7.04 z m 33.53596,21.44 h 8.512 v -17.472 c 0,-3.52 0.32,-5.888 0.896,-7.36 1.024,-2.368 3.136,-3.648 6.08,-3.648 2.24,0 4.224,0.832 5.376,2.24 1.024,1.344 1.472,3.456 1.472,6.784 v 19.456 h 8.512 v -17.472 c 0,-3.968 0.32,-5.952 1.216,-7.616 1.088,-2.176 3.264,-3.392 5.952,-3.392 2.112,0 3.904,0.768 5.056,2.176 1.152,1.344 1.6,3.328 1.6,6.848 v 19.456 h 8.512 v -20.48 c 0,-4.288 -0.768,-7.744 -2.304,-10.176 -2.24,-3.584 -6.656,-5.632 -12.096,-5.632 -4.992,0 -8.448,1.664 -11.328,5.504 -2.432,-3.904 -5.504,-5.504 -10.432,-5.504 -4.16,0 -6.72,1.152 -9.216,4.16 v -3.328 h -7.808 z m 60.54382,11.84 h 8.512 v -15.168 c 3.264,2.88 6.528,4.16 10.88,4.16 10.24,0 17.728,-7.936 17.728,-18.688 0,-10.688 -7.424,-18.432 -17.6,-18.432 -4.864,0 -8.96,1.728 -11.712,4.992 v -4.16 h -7.808 z m 18.368,-40.32 c 5.76,0 10.176,4.672 10.176,10.816 0,6.016 -4.416,10.688 -10.048,10.688 -6.016,0 -10.496,-4.608 -10.496,-10.816 0,-6.08 4.48,-10.688 10.368,-10.688 z m 23.87199,28.48 h 8.512 v -47.296 h -8.512 z m 51.26399,-35.456 h -7.808 v 4.736 c -2.944,-3.904 -6.464,-5.568 -11.584,-5.568 -10.496,0 -18.048,7.872 -18.048,18.688 0,10.688 7.488,18.432 17.856,18.432 4.992,0 8.384,-1.536 11.776,-5.44 v 4.608 h 7.808 z m -18.496,6.976 c 6.08,0 10.432,4.544 10.432,11.008 0,2.56 -1.024,5.504 -2.56,7.296 -1.728,2.112 -4.48,3.2 -7.744,3.2 -6.208,0 -10.496,-4.224 -10.496,-10.432 0,-6.464 4.288,-11.072 10.368,-11.072 z m 27.19988,28.48 h 8.512 v -27.712 h 5.12 v -7.744 h -5.12 v -11.84 h -8.512 v 11.84 h -4.16 v 7.744 h 4.16 z m 52.35185,-13.952 c 0.256,-1.28 0.32,-2.048 0.32,-3.328 0,-10.944 -7.744,-19.008 -18.304,-19.008 -10.432,0 -18.688,8.256 -18.688,18.688 0,10.368 8.384,18.432 19.2,18.432 5.824,0 10.368,-2.112 14.08,-6.4 1.344,-1.664 2.24,-3.136 2.816,-4.928 h -9.28 c -2.176,2.56 -4.288,3.52 -7.808,3.52 -5.056,0 -8.768,-2.688 -9.792,-6.976 z m -27.712,-7.488 c 1.344,-4.608 4.8,-7.04 9.856,-7.04 5.248,0 8.704,2.496 9.792,7.04 z"
       id="text4"
       style="font-weight:600;font-size:64px;font-family:'URW Gothic';-inkscape-font-specification:'URW Gothic, Semi-Bold';fill:#000080;stroke-width:26.5839;stroke-linecap:round;stroke-linejoin:round"
       aria-label="Template" />
    <path
       style="fill:#000080;fill-opacity:1;stroke:#000080;stroke-width:7.61092;stroke-linecap:round;stroke-linejoin:round;stroke-dasharray:none;stroke-opacity:1;paint-order:normal"
       d="M 59.569594,100.59603 46.238027,161.50839 H 180.53775 l -38.06343,-60.91236 z"
       id="path1"
       sodipodi:nodetypes="ccccc" />
    <path
       style="fill:#00aa00;fill-opacity:1;stroke:#00aa00;stroke-width:7.61092;stroke-linecap:round;stroke-linejoin:round;stroke-dasharray:none;stroke-opacity:1;paint-order:normal"
       d="M 72.901947,33.239667 61.992368,83.085115 h 70.340742 l -31.4913,-49.845448 z"
       id="path2"
       sodipodi:nodetypes="ccccc" />
  </g>
</svg>
